<svg width="320" height="180" viewBox="0 0 320 180" fill="none" xmlns="http://www.w3.org/2000/svg">
<g opacity="0.25">
<path d="M160 120C143.431 120 130 106.569 130 90C130 73.431 143.431 60 160 60C176.569 60 190 73.431 190 90C190 106.569 176.569 120 160 120ZM160 114C166.365 114 172.47 111.471 176.971 106.971C181.471 102.47 184 96.3652 184 90C184 83.6348 181.471 77.5303 176.971 73.0294C172.47 68.5286 166.365 66 160 66C153.635 66 147.53 68.5286 143.029 73.0294C138.529 77.5303 136 83.6348 136 90C136 96.3652 138.529 102.47 143.029 106.971C147.53 111.471 153.635 114 160 114V114ZM155.866 79.245L170.503 89.001C170.668 89.1105 170.803 89.2591 170.896 89.4333C170.989 89.6076 171.038 89.8023 171.038 90C171.038 90.1977 170.989 90.3924 170.896 90.5667C170.803 90.7409 170.668 90.8895 170.503 90.999L155.863 100.755C155.682 100.875 155.473 100.943 155.257 100.953C155.04 100.964 154.825 100.915 154.634 100.813C154.443 100.711 154.283 100.559 154.172 100.373C154.06 100.188 154.001 99.9756 154 99.759V80.241C154 80.024 154.06 79.8111 154.171 79.625C154.283 79.439 154.443 79.2868 154.635 79.1846C154.826 79.0824 155.042 79.034 155.259 79.0447C155.476 79.0553 155.685 79.1245 155.866 79.245V79.245Z" fill="white"/>
</g>
</svg>
