<svg width="26" height="19" viewBox="0 0 26 19" fill="none" xmlns="http://www.w3.org/2000/svg">
<path opacity="0.5" d="M7.015 19.322C9.14399 19.322 10.962 18.3947 12.2112 16.6208C13.4325 14.8865 14.064 12.4154 14.064 9.352H12.064C12.064 12.1766 11.4765 14.1905 10.576 15.4692C9.70349 16.7083 8.49701 17.322 7.015 17.322V19.322ZM14.064 9.352C14.064 6.30022 13.4325 3.86834 12.2033 2.17268C10.9447 0.436604 9.12426 -0.434 7.015 -0.434V1.566C8.51674 1.566 9.72082 2.1559 10.584 3.34657C11.4765 4.57766 12.064 6.53878 12.064 9.352H14.064ZM7.015 -0.434C4.90905 -0.434 3.08303 0.428112 1.81731 2.16122C0.580612 3.8546 -0.057 6.28779 -0.057 9.352H1.943C1.943 6.52821 2.53589 4.5684 3.43244 3.34078C4.29997 2.15289 5.50995 1.566 7.015 1.566V-0.434ZM-0.057 9.352C-0.057 12.4171 0.580944 14.8887 1.80873 16.6228C3.0638 18.3955 4.88679 19.322 7.015 19.322V17.322C5.53221 17.322 4.3192 16.7075 3.44102 15.4672C2.53556 14.1883 1.943 12.1749 1.943 9.352H-0.057ZM7.015 14.148C6.86802 14.148 6.78098 14.1174 6.712 14.0712C6.63682 14.0209 6.50471 13.8988 6.36121 13.5891C6.057 12.9325 5.807 11.6663 5.807 9.352H3.807C3.807 11.7297 4.0515 13.3615 4.54654 14.4299C4.80267 14.9827 5.14637 15.4299 5.59947 15.7332C6.05877 16.0406 6.55248 16.148 7.015 16.148V14.148ZM5.807 9.352C5.807 7.04626 6.05801 5.82317 6.35506 5.20556C6.49301 4.91874 6.6177 4.81215 6.68708 4.76864C6.75484 4.72614 6.84892 4.694 7.015 4.694V2.694C6.57158 2.694 6.08491 2.78549 5.62439 3.07433C5.16549 3.36216 4.81436 3.79463 4.55269 4.33868C4.05049 5.38283 3.807 6.98874 3.807 9.352H5.807ZM7.015 4.694C7.18108 4.694 7.27207 4.72612 7.3362 4.76667C7.40225 4.80844 7.52482 4.91319 7.66101 5.20048C7.95445 5.81948 8.2 7.04421 8.2 9.352H10.2C10.2 6.99079 9.96255 5.38652 9.46824 4.34377C9.21055 3.80019 8.86306 3.36587 8.40514 3.0763C7.9453 2.78551 7.45842 2.694 7.015 2.694V4.694ZM8.2 9.352C8.2 11.6683 7.95545 12.9361 7.65499 13.5941C7.51331 13.9043 7.38329 14.0247 7.31126 14.0733C7.24585 14.1174 7.16188 14.148 7.015 14.148V16.148C7.47762 16.148 7.97152 16.0406 8.43009 15.7311C8.88203 15.4261 9.22206 14.9772 9.47426 14.4249C9.96154 13.3579 10.2 11.7277 10.2 9.352H8.2ZM14.8896 18H13.8896V19H14.8896V18ZM25.6996 18V19H26.6996V18H25.6996ZM25.6996 14.688H26.6996V13.688H25.6996V14.688ZM22.6176 14.688H21.6176V15.688H22.6176V14.688ZM22.6176 0.864999H23.6176V-0.135002H22.6176V0.864999ZM19.6046 0.864999V-0.135002H19.3141L19.0688 0.020669L19.6046 0.864999ZM15.3726 2.429L15.1883 1.44613L14.3726 1.59907V2.429H15.3726ZM15.3726 4.959H14.3726V5.959H15.3726V4.959ZM18.5236 4.959H19.5236V3.959H18.5236V4.959ZM18.5236 14.688V15.688H19.5236V14.688H18.5236ZM14.8896 14.688V13.688H13.8896V14.688H14.8896ZM14.8896 19H25.6996V17H14.8896V19ZM26.6996 18V14.688H24.6996V18H26.6996ZM25.6996 13.688H22.6176V15.688H25.6996V13.688ZM23.6176 14.688V0.864999H21.6176V14.688H23.6176ZM22.6176 -0.135002H19.6046V1.865H22.6176V-0.135002ZM19.0688 0.020669C18.0003 0.698755 16.9293 1.1197 15.1883 1.44613L15.5569 3.41187C17.496 3.0483 18.8169 2.54924 20.1404 1.70933L19.0688 0.020669ZM14.3726 2.429V4.959H16.3726V2.429H14.3726ZM15.3726 5.959H18.5236V3.959H15.3726V5.959ZM17.5236 4.959V14.688H19.5236V4.959H17.5236ZM18.5236 13.688H14.8896V15.688H18.5236V13.688ZM13.8896 14.688V18H15.8896V14.688H13.8896Z" fill="white"/>
</svg>
