<svg width="296" height="40" viewBox="0 0 296 40" fill="none" xmlns="http://www.w3.org/2000/svg">
<path opacity="0.5" d="M29.08 38.4L29.5394 39.2882L30.2394 38.9262L30.051 38.161L29.08 38.4ZM27.8 33.2L28.771 32.961L28.5086 31.8948L27.4715 32.2555L27.8 33.2ZM17.52 30L18.4512 29.6356L18.1735 28.9259L17.4156 29.0055L17.52 30ZM10.28 30.76L10.1756 29.7655L8.84146 29.9055L9.3567 31.1441L10.28 30.76ZM13.72 32.56C18.0325 32.56 21.7255 31.0015 24.3306 28.0863C26.9262 25.1819 28.36 21.0244 28.36 15.96H26.36C26.36 20.6556 25.0338 24.2981 22.8394 26.7537C20.6545 29.1985 17.5275 30.56 13.72 30.56V32.56ZM28.36 15.96C28.36 10.9139 26.925 6.83037 24.3212 3.99819C21.7098 1.15784 18.0172 -0.320001 13.72 -0.320001V1.68C17.5428 1.68 20.6702 2.98216 22.8488 5.35181C25.035 7.72963 26.36 11.2861 26.36 15.96H28.36ZM13.72 -0.320001C9.42486 -0.320001 5.73191 1.14646 3.11949 3.98248C0.514499 6.81045 -0.92 10.8949 -0.92 15.96H1.08C1.08 11.2651 2.4055 7.70955 4.59051 5.33751C6.76809 2.97354 9.89514 1.68 13.72 1.68V-0.320001ZM-0.92 15.96C-0.92 21.0244 0.513792 25.1819 3.10936 28.0863C5.71455 31.0015 9.40753 32.56 13.72 32.56V30.56C9.91247 30.56 6.78545 29.1985 4.60064 26.7537C2.40621 24.2981 1.08 20.6556 1.08 15.96H-0.92ZM13.72 24.72C12.1137 24.72 10.841 24.014 9.92666 22.6173C8.98232 21.1748 8.4 18.9518 8.4 15.96H6.4C6.4 19.1682 7.01768 21.8252 8.25334 23.7127C9.51895 25.646 11.4063 26.72 13.72 26.72V24.72ZM8.4 15.96C8.4 13.2002 8.9777 11.1352 9.91144 9.7903C10.8169 8.4861 12.0917 7.8 13.72 7.8V5.8C11.4283 5.8 9.5431 6.8139 8.26856 8.6497C7.0223 10.4448 6.4 12.9598 6.4 15.96H8.4ZM13.72 7.8C15.3495 7.8 16.6357 8.48739 17.551 9.79381C18.4935 11.1391 19.08 13.2032 19.08 15.96H21.08C21.08 12.9568 20.4465 10.4409 19.189 8.64619C17.9043 6.81261 16.0105 5.8 13.72 5.8V7.8ZM19.08 15.96C19.08 18.949 18.4887 21.1711 17.5356 22.6138C16.6115 24.0126 15.3277 24.72 13.72 24.72V26.72C16.0323 26.72 17.9285 25.6474 19.2044 23.7162C20.4513 21.8289 21.08 19.171 21.08 15.96H19.08ZM23.64 40.4C26.0831 40.4 28.1821 39.9903 29.5394 39.2882L28.6206 37.5118C27.6579 38.0097 25.9169 38.4 23.64 38.4V40.4ZM30.051 38.161L28.771 32.961L26.829 33.439L28.109 38.639L30.051 38.161ZM27.4715 32.2555C26.6469 32.5423 25.5978 32.76 24.44 32.76V34.76C25.8422 34.76 27.1131 34.4977 28.1285 34.1445L27.4715 32.2555ZM24.44 32.76C21.8518 32.76 19.3002 31.8052 18.4512 29.6356L16.5888 30.3644C17.8998 33.7148 21.5883 34.76 24.44 34.76V32.76ZM17.4156 29.0055L10.1756 29.7655L10.3844 31.7545L17.6244 30.9945L17.4156 29.0055ZM9.3567 31.1441C11.5847 36.4999 16.5379 40.4 23.64 40.4V38.4C17.3821 38.4 13.1353 35.0201 11.2033 30.3759L9.3567 31.1441ZM55.1253 1.2H56.1253V0.199997H55.1253V1.2ZM48.2453 1.2V0.199997H47.2453V1.2H48.2453ZM38.2453 1.2H39.2453V0.199997H38.2453V1.2ZM31.1253 1.2V0.199997H30.1253V1.2H31.1253ZM43.2053 32.56C47.3582 32.56 50.6654 31.3675 52.9031 28.6857C55.1094 26.0415 56.1253 22.1242 56.1253 17H54.1253C54.1253 21.9158 53.1412 25.2785 51.3675 27.4043C49.6252 29.4925 46.9724 30.56 43.2053 30.56V32.56ZM56.1253 17V1.2H54.1253V17H56.1253ZM55.1253 0.199997H48.2453V2.2H55.1253V0.199997ZM47.2453 1.2V17.76H49.2453V1.2H47.2453ZM47.2453 17.76C47.2453 20.5135 46.7982 22.1673 46.1248 23.1163C45.5072 23.9867 44.5984 24.4 43.2053 24.4V26.4C45.0523 26.4 46.6634 25.8133 47.7559 24.2737C48.7925 22.8127 49.2453 20.6465 49.2453 17.76H47.2453ZM43.2053 24.4C41.7908 24.4 40.9104 23.9865 40.3189 23.1277C39.6657 22.1795 39.2453 20.5244 39.2453 17.76H37.2453C37.2453 20.6356 37.6649 22.8005 38.6718 24.2623C39.7403 25.8135 41.3398 26.4 43.2053 26.4V24.4ZM39.2453 17.76V1.2H37.2453V17.76H39.2453ZM38.2453 0.199997H31.1253V2.2H38.2453V0.199997ZM30.1253 1.2V17H32.1253V1.2H30.1253ZM30.1253 17C30.1253 22.1301 31.1736 26.0488 33.418 28.6922C35.6907 31.369 39.0345 32.56 43.2053 32.56V30.56C39.4161 30.56 36.7199 29.491 34.9426 27.3978C33.137 25.2712 32.1253 21.9099 32.1253 17H30.1253ZM60.1931 31H59.1931V32H60.1931V31ZM79.5131 31V32H80.5131V31H79.5131ZM79.5131 25H80.5131V24H79.5131V25ZM67.3531 25H66.3531V26H67.3531V25ZM67.3531 18.68V17.68H66.3531V18.68H67.3531ZM77.3131 18.68V19.68H78.3131V18.68H77.3131ZM77.3131 12.68H78.3131V11.68H77.3131V12.68ZM67.3531 12.68H66.3531V13.68H67.3531V12.68ZM67.3531 7.16V6.16H66.3531V7.16H67.3531ZM79.0731 7.16V8.16H80.0731V7.16H79.0731ZM79.0731 1.2H80.0731V0.199997H79.0731V1.2ZM60.1931 1.2V0.199997H59.1931V1.2H60.1931ZM60.1931 32H79.5131V30H60.1931V32ZM80.5131 31V25H78.5131V31H80.5131ZM79.5131 24H67.3531V26H79.5131V24ZM68.3531 25V18.68H66.3531V25H68.3531ZM67.3531 19.68H77.3131V17.68H67.3531V19.68ZM78.3131 18.68V12.68H76.3131V18.68H78.3131ZM77.3131 11.68H67.3531V13.68H77.3131V11.68ZM68.3531 12.68V7.16H66.3531V12.68H68.3531ZM67.3531 8.16H79.0731V6.16H67.3531V8.16ZM80.0731 7.16V1.2H78.0731V7.16H80.0731ZM79.0731 0.199997H60.1931V2.2H79.0731V0.199997ZM59.1931 1.2V31H61.1931V1.2H59.1931ZM83.7884 31H82.7884V32H83.7884V31ZM103.108 31V32H104.108V31H103.108ZM103.108 25H104.108V24H103.108V25ZM90.9484 25H89.9484V26H90.9484V25ZM90.9484 18.68V17.68H89.9484V18.68H90.9484ZM100.908 18.68V19.68H101.908V18.68H100.908ZM100.908 12.68H101.908V11.68H100.908V12.68ZM90.9484 12.68H89.9484V13.68H90.9484V12.68ZM90.9484 7.16V6.16H89.9484V7.16H90.9484ZM102.668 7.16V8.16H103.668V7.16H102.668ZM102.668 1.2H103.668V0.199997H102.668V1.2ZM83.7884 1.2V0.199997H82.7884V1.2H83.7884ZM83.7884 32H103.108V30H83.7884V32ZM104.108 31V25H102.108V31H104.108ZM103.108 24H90.9484V26H103.108V24ZM91.9484 25V18.68H89.9484V25H91.9484ZM90.9484 19.68H100.908V17.68H90.9484V19.68ZM101.908 18.68V12.68H99.9084V18.68H101.908ZM100.908 11.68H90.9484V13.68H100.908V11.68ZM91.9484 12.68V7.16H89.9484V12.68H91.9484ZM90.9484 8.16H102.668V6.16H90.9484V8.16ZM103.668 7.16V1.2H101.668V7.16H103.668ZM102.668 0.199997H83.7884V2.2H102.668V0.199997ZM82.7884 1.2V31H84.7884V1.2H82.7884ZM107.384 31H106.384V32H107.384V31ZM114.184 31V32H115.184V31H114.184ZM113.264 10.12V9.12H112.163L112.268 10.2159L113.264 10.12ZM113.464 10.12L114.376 9.71127L114.112 9.12H113.464V10.12ZM116.384 16.64L115.471 17.0487L115.482 17.0727L115.494 17.0961L116.384 16.64ZM123.744 31L122.854 31.4561L123.133 32H123.744V31ZM131.024 31V32H132.024V31H131.024ZM131.024 1.2H132.024V0.199997H131.024V1.2ZM124.224 1.2V0.199997H123.224V1.2H124.224ZM125.184 22.08V23.08H126.304L126.177 21.9668L125.184 22.08ZM124.984 22.08L124.069 22.4846L124.333 23.08H124.984V22.08ZM122.064 15.48L122.978 15.0754L122.966 15.0472L122.952 15.0199L122.064 15.48ZM114.664 1.2L115.552 0.739898L115.272 0.199997H114.664V1.2ZM107.384 1.2V0.199997H106.384V1.2H107.384ZM107.384 32H114.184V30H107.384V32ZM115.184 31V21.12H113.184V31H115.184ZM115.184 21.12C115.184 17.4562 114.572 13.2684 114.259 10.0241L112.268 10.2159C112.596 13.6116 113.184 17.5838 113.184 21.12H115.184ZM113.264 11.12H113.464V9.12H113.264V11.12ZM112.551 10.5287L115.471 17.0487L117.296 16.2313L114.376 9.71127L112.551 10.5287ZM115.494 17.0961L122.854 31.4561L124.634 30.5439L117.274 16.1839L115.494 17.0961ZM123.744 32H131.024V30H123.744V32ZM132.024 31V1.2H130.024V31H132.024ZM131.024 0.199997H124.224V2.2H131.024V0.199997ZM123.224 1.2V11.08H125.224V1.2H123.224ZM123.224 11.08C123.224 14.7141 123.835 19.079 124.19 22.1932L126.177 21.9668C125.812 18.761 125.224 14.5659 125.224 11.08H123.224ZM125.184 21.08H124.984V23.08H125.184V21.08ZM125.898 21.6754L122.978 15.0754L121.149 15.8846L124.069 22.4846L125.898 21.6754ZM122.952 15.0199L115.552 0.739898L113.776 1.6601L121.176 15.9401L122.952 15.0199ZM114.664 0.199997H107.384V2.2H114.664V0.199997ZM106.384 1.2V31H108.384V1.2H106.384ZM156.151 32.56C160.464 32.56 164.157 31.0015 166.762 28.0863C169.357 25.1819 170.791 21.0244 170.791 15.96H168.791C168.791 20.6556 167.465 24.2981 165.271 26.7537C163.086 29.1985 159.959 30.56 156.151 30.56V32.56ZM170.791 15.96C170.791 10.9139 169.356 6.83037 166.752 3.99819C164.141 1.15784 160.448 -0.320001 156.151 -0.320001V1.68C159.974 1.68 163.101 2.98216 165.28 5.35181C167.466 7.72963 168.791 11.2861 168.791 15.96H170.791ZM156.151 -0.320001C151.856 -0.320001 148.163 1.14646 145.551 3.98248C142.946 6.81045 141.511 10.8949 141.511 15.96H143.511C143.511 11.2651 144.837 7.70955 147.022 5.33751C149.199 2.97354 152.326 1.68 156.151 1.68V-0.320001ZM141.511 15.96C141.511 21.0244 142.945 25.1819 145.541 28.0863C148.146 31.0015 151.839 32.56 156.151 32.56V30.56C152.344 30.56 149.217 29.1985 147.032 26.7537C144.837 24.2981 143.511 20.6556 143.511 15.96H141.511ZM156.151 24.4C154.554 24.4 153.275 23.6715 152.354 22.2865C151.409 20.864 150.831 18.719 150.831 15.96H148.831C148.831 18.961 149.454 21.536 150.688 23.3935C151.948 25.2885 153.829 26.4 156.151 26.4V24.4ZM150.831 15.96C150.831 13.2002 151.409 11.1352 152.343 9.7903C153.248 8.4861 154.523 7.8 156.151 7.8V5.8C153.859 5.8 151.974 6.8139 150.7 8.6497C149.454 10.4448 148.831 12.9598 148.831 15.96H150.831ZM156.151 7.8C157.781 7.8 159.067 8.48739 159.982 9.79381C160.925 11.1391 161.511 13.2032 161.511 15.96H163.511C163.511 12.9568 162.878 10.4409 161.62 8.64619C160.336 6.81261 158.442 5.8 156.151 5.8V7.8ZM161.511 15.96C161.511 18.716 160.925 20.8602 159.971 22.283C159.04 23.67 157.75 24.4 156.151 24.4V26.4C158.472 26.4 160.362 25.29 161.632 23.397C162.877 21.5398 163.511 18.964 163.511 15.96H161.511ZM173.717 31H172.717V32H173.717V31ZM180.877 31V32H181.877V31H180.877ZM180.877 19.64V18.64H179.877V19.64H180.877ZM191.037 19.64V20.64H192.037V19.64H191.037ZM191.037 13.68H192.037V12.68H191.037V13.68ZM180.877 13.68H179.877V14.68H180.877V13.68ZM180.877 7.16V6.16H179.877V7.16H180.877ZM192.717 7.16V8.16H193.717V7.16H192.717ZM192.717 1.2H193.717V0.199997H192.717V1.2ZM173.717 1.2V0.199997H172.717V1.2H173.717ZM173.717 32H180.877V30H173.717V32ZM181.877 31V19.64H179.877V31H181.877ZM180.877 20.64H191.037V18.64H180.877V20.64ZM192.037 19.64V13.68H190.037V19.64H192.037ZM191.037 12.68H180.877V14.68H191.037V12.68ZM181.877 13.68V7.16H179.877V13.68H181.877ZM180.877 8.16H192.717V6.16H180.877V8.16ZM193.717 7.16V1.2H191.717V7.16H193.717ZM192.717 0.199997H173.717V2.2H192.717V0.199997ZM172.717 1.2V31H174.717V1.2H172.717ZM203.798 31H202.798V32H203.798V31ZM222.558 31V32H223.558V31H222.558ZM222.558 25H223.558V24H222.558V25ZM210.958 25H209.958V26H210.958V25ZM210.958 1.2H211.958V0.199997H210.958V1.2ZM203.798 1.2V0.199997H202.798V1.2H203.798ZM203.798 32H222.558V30H203.798V32ZM223.558 31V25H221.558V31H223.558ZM222.558 24H210.958V26H222.558V24ZM211.958 25V1.2H209.958V25H211.958ZM210.958 0.199997H203.798V2.2H210.958V0.199997ZM202.798 1.2V31H204.798V1.2H202.798ZM247.913 1.2H248.913V0.199997H247.913V1.2ZM241.033 1.2V0.199997H240.033V1.2H241.033ZM231.033 1.2H232.033V0.199997H231.033V1.2ZM223.913 1.2V0.199997H222.913V1.2H223.913ZM235.993 32.56C240.146 32.56 243.453 31.3675 245.691 28.6857C247.897 26.0415 248.913 22.1242 248.913 17H246.913C246.913 21.9158 245.929 25.2785 244.155 27.4043C242.413 29.4925 239.76 30.56 235.993 30.56V32.56ZM248.913 17V1.2H246.913V17H248.913ZM247.913 0.199997H241.033V2.2H247.913V0.199997ZM240.033 1.2V17.76H242.033V1.2H240.033ZM240.033 17.76C240.033 20.5135 239.586 22.1673 238.912 23.1163C238.295 23.9867 237.386 24.4 235.993 24.4V26.4C237.84 26.4 239.451 25.8133 240.543 24.2737C241.58 22.8127 242.033 20.6465 242.033 17.76H240.033ZM235.993 24.4C234.578 24.4 233.698 23.9865 233.106 23.1277C232.453 22.1795 232.033 20.5244 232.033 17.76H230.033C230.033 20.6356 230.452 22.8005 231.459 24.2623C232.528 25.8135 234.127 26.4 235.993 26.4V24.4ZM232.033 17.76V1.2H230.033V17.76H232.033ZM231.033 0.199997H223.913V2.2H231.033V0.199997ZM222.913 1.2V17H224.913V1.2H222.913ZM222.913 17C222.913 22.1301 223.961 26.0488 226.206 28.6922C228.478 31.369 231.822 32.56 235.993 32.56V30.56C232.204 30.56 229.507 29.491 227.73 27.3978C225.924 25.2712 224.913 21.9099 224.913 17H222.913ZM266.958 14.08L267.332 13.1522L267.328 13.1508L266.958 14.08ZM263.238 12.6L263.608 11.6708L263.605 11.6696L263.238 12.6ZM268.398 9.08L267.796 9.87804L268.574 10.4659L269.181 9.70213L268.398 9.08ZM271.958 4.6L272.741 5.22213L273.296 4.5237L272.666 3.89289L271.958 4.6ZM257.518 17.84L257.906 16.9184L257.897 16.9144L257.888 16.9107L257.518 17.84ZM261.318 19.44L261.707 18.5186L261.706 18.5184L261.318 19.44ZM254.438 22.36L255.093 21.6038L254.321 20.9356L253.669 21.7217L254.438 22.36ZM250.358 27.28L249.589 26.6417L248.983 27.372L249.681 28.0152L250.358 27.28ZM261.478 32.56C269.108 32.56 273.838 27.8671 273.838 22.24H271.838C271.838 26.5329 268.248 30.56 261.478 30.56V32.56ZM273.838 22.24C273.838 19.9545 273.236 18.0637 272.075 16.5352C270.923 15.019 269.282 13.9367 267.332 13.1522L266.585 15.0078C268.315 15.7033 269.613 16.601 270.482 17.7448C271.341 18.8763 271.838 20.3255 271.838 22.24H273.838ZM267.328 13.1508L263.608 11.6708L262.869 13.5292L266.589 15.0092L267.328 13.1508ZM263.605 11.6696C262.233 11.1293 261.231 10.7506 260.543 10.315C259.908 9.91289 259.758 9.60326 259.758 9.24H257.758C257.758 10.5567 258.529 11.4071 259.474 12.005C260.365 12.5694 261.603 13.0307 262.872 13.5304L263.605 11.6696ZM259.758 9.24C259.758 8.78624 259.929 8.48623 260.259 8.25964C260.636 8.0008 261.291 7.8 262.278 7.8V5.8C261.066 5.8 259.96 6.0392 259.128 6.61036C258.248 7.21377 257.758 8.13375 257.758 9.24H259.758ZM262.278 7.8C264.321 7.8 265.954 8.48763 267.796 9.87804L269.001 8.28196C266.922 6.71236 264.876 5.8 262.278 5.8V7.8ZM269.181 9.70213L272.741 5.22213L271.176 3.97787L267.616 8.45786L269.181 9.70213ZM272.666 3.89289C269.86 1.08748 265.957 -0.320001 262.278 -0.320001V1.68C265.48 1.68 268.857 2.91251 271.251 5.30711L272.666 3.89289ZM262.278 -0.320001C255.564 -0.320001 250.478 3.98228 250.478 9.68H252.478C252.478 5.37772 256.353 1.68 262.278 1.68V-0.320001ZM250.478 9.68C250.478 14.5561 253.806 17.4405 257.149 18.7693L257.888 16.9107C254.991 15.7595 252.478 13.4439 252.478 9.68H250.478ZM257.13 18.7616L260.93 20.3616L261.706 18.5184L257.906 16.9184L257.13 18.7616ZM260.93 20.3614C262.273 20.9282 263.194 21.2896 263.821 21.7103C264.113 21.9064 264.278 22.0771 264.373 22.2297C264.46 22.3695 264.518 22.5411 264.518 22.8H266.518C266.518 22.1989 266.372 21.6555 266.071 21.1728C265.779 20.7029 265.374 20.3436 264.936 20.0497C264.102 19.4904 262.924 19.0318 261.707 18.5186L260.93 20.3614ZM264.518 22.8C264.518 23.3051 264.343 23.6362 263.993 23.882C263.591 24.1651 262.857 24.4 261.638 24.4V26.4C263.06 26.4 264.266 26.1349 265.144 25.518C266.074 24.8638 266.518 23.8949 266.518 22.8H264.518ZM261.638 24.4C259.584 24.4 257.047 23.2954 255.093 21.6038L253.784 23.1162C255.989 25.0246 258.973 26.4 261.638 26.4V24.4ZM253.669 21.7217L249.589 26.6417L251.128 27.9183L255.208 22.9983L253.669 21.7217ZM249.681 28.0152C252.96 31.039 257.368 32.56 261.478 32.56V30.56C257.829 30.56 253.917 29.201 251.036 26.5448L249.681 28.0152ZM280.734 31H279.734V32H280.734V31ZM287.894 31V32H288.894V31H287.894ZM287.894 7.16V6.16H286.894V7.16H287.894ZM295.974 7.16V8.16H296.974V7.16H295.974ZM295.974 1.2H296.974V0.199997H295.974V1.2ZM272.694 1.2V0.199997H271.694V1.2H272.694ZM272.694 7.16H271.694V8.16H272.694V7.16ZM280.734 7.16H281.734V6.16H280.734V7.16ZM280.734 32H287.894V30H280.734V32ZM288.894 31V7.16H286.894V31H288.894ZM287.894 8.16H295.974V6.16H287.894V8.16ZM296.974 7.16V1.2H294.974V7.16H296.974ZM295.974 0.199997H272.694V2.2H295.974V0.199997ZM271.694 1.2V7.16H273.694V1.2H271.694ZM272.694 8.16H280.734V6.16H272.694V8.16ZM279.734 7.16V31H281.734V7.16H279.734Z" fill="white"/>
</svg>
