<svg width="105" height="19" viewBox="0 0 105 19" fill="none" xmlns="http://www.w3.org/2000/svg">
<path opacity="0.5" d="M14.2312 16.229L14.9243 16.9498L15.2312 16.6547V16.229H14.2312ZM14.2312 8.225H15.2312V7.225H14.2312V8.225ZM7.86022 8.225V7.225H6.86022V8.225H7.86022ZM7.86022 11.583H6.86022V12.583H7.86022V11.583ZM10.5742 11.583H11.5742V10.583H10.5742V11.583ZM10.5742 14.343L11.1742 15.143L11.5742 14.843V14.343H10.5742ZM11.7702 5.419L11.1046 6.16529L11.8804 6.85723L12.5418 6.05518L11.7702 5.419ZM13.9322 2.797L14.7038 3.43318L15.2817 2.73227L14.6393 2.08989L13.9322 2.797ZM8.52722 19.322C11.1593 19.322 13.5292 18.2913 14.9243 16.9498L13.5381 15.5082C12.5412 16.4667 10.6791 17.322 8.52722 17.322V19.322ZM15.2312 16.229V8.225H13.2312V16.229H15.2312ZM14.2312 7.225H7.86022V9.225H14.2312V7.225ZM6.86022 8.225V11.583H8.86022V8.225H6.86022ZM7.86022 12.583H10.5742V10.583H7.86022V12.583ZM9.57422 11.583V14.343H11.5742V11.583H9.57422ZM9.97422 13.543C9.84288 13.6415 9.44173 13.78 8.96422 13.78V15.78C9.68271 15.78 10.5696 15.5965 11.1742 15.143L9.97422 13.543ZM8.96422 13.78C7.58095 13.78 6.71446 13.361 6.17096 12.7192C5.6025 12.048 5.24922 10.9714 5.24922 9.398H3.24922C3.24922 11.2286 3.65494 12.843 4.64473 14.0118C5.65947 15.21 7.15048 15.78 8.96422 15.78V13.78ZM5.24922 9.398C5.24922 7.90609 5.65486 6.82581 6.23763 6.13649C6.80838 5.46138 7.61009 5.085 8.59622 5.085V3.085C7.05234 3.085 5.68055 3.69762 4.71031 4.84526C3.75207 5.97869 3.24922 7.55491 3.24922 9.398H5.24922ZM8.59622 5.085C9.68111 5.085 10.35 5.49229 11.1046 6.16529L12.4358 4.6727C11.4884 3.8277 10.3633 3.085 8.59622 3.085V5.085ZM12.5418 6.05518L14.7038 3.43318L13.1607 2.16082L10.9987 4.78282L12.5418 6.05518ZM14.6393 2.08989C13.313 0.763552 11.2752 -0.434 8.45822 -0.434V1.566C10.6553 1.566 12.2055 2.48445 13.2251 3.50411L14.6393 2.08989ZM8.45822 -0.434C5.92992 -0.434 3.5633 0.470584 1.8264 2.20423C0.0843878 3.94297 -0.959785 6.45076 -0.959785 9.536H1.04022C1.04022 6.91724 1.91654 4.94003 3.23928 3.61977C4.56713 2.29441 6.40951 1.566 8.45822 1.566V-0.434ZM-0.959785 9.536C-0.959785 12.6581 0.0562303 15.1318 1.81353 16.823C3.56276 18.5065 5.95005 19.322 8.52722 19.322V17.322C6.36639 17.322 4.51017 16.6425 3.2004 15.382C1.8987 14.1292 1.04022 12.2099 1.04022 9.536H-0.959785ZM23.8314 19.322C26.4184 19.322 28.6621 18.384 30.2494 16.6078C31.8271 14.8424 32.6744 12.3424 32.6744 9.352H30.6744C30.6744 11.9736 29.9347 13.9586 28.7581 15.2752C27.5912 16.581 25.9134 17.322 23.8314 17.322V19.322ZM32.6744 9.352C32.6744 6.37144 31.8259 3.91137 30.2399 2.18631C28.6464 0.453092 26.4031 -0.434 23.8314 -0.434V1.566C25.9286 1.566 27.6068 2.27741 28.7676 3.53994C29.9359 4.81063 30.6744 6.74356 30.6744 9.352H32.6744ZM23.8314 -0.434C21.2617 -0.434 19.018 0.445958 17.4235 2.17698C15.8364 3.89995 14.9884 6.36085 14.9884 9.352H16.9884C16.9884 6.73114 17.7274 4.79905 18.8945 3.53202C20.0542 2.27304 21.732 1.566 23.8314 1.566V-0.434ZM14.9884 9.352C14.9884 12.3424 15.8357 14.8424 17.4134 16.6078C19.0007 18.384 21.2444 19.322 23.8314 19.322V17.322C21.7494 17.322 20.0716 16.581 18.9046 15.2752C17.7281 13.9586 16.9884 11.9736 16.9884 9.352H14.9884ZM23.8314 13.78C23.067 13.78 22.4593 13.4425 22.002 12.7545C21.5198 12.029 21.1974 10.887 21.1974 9.352H19.1974C19.1974 11.129 19.565 12.701 20.3363 13.8615C21.1325 15.0595 22.3418 15.78 23.8314 15.78V13.78ZM21.1974 9.352C21.1974 7.81619 21.5201 6.72448 21.9906 6.0468C22.4328 5.40985 23.0361 5.085 23.8314 5.085V3.085C22.3726 3.085 21.159 3.73765 20.3477 4.9062C19.5647 6.03402 19.1974 7.57581 19.1974 9.352H21.1974ZM23.8314 5.085C24.6279 5.085 25.2383 5.41114 25.6861 6.05031C26.1612 6.72831 26.4884 7.81924 26.4884 9.352H28.4884C28.4884 7.57276 28.1141 6.03019 27.3241 4.90269C26.5069 3.73636 25.2888 3.085 23.8314 3.085V5.085ZM26.4884 9.352C26.4884 10.884 26.1614 12.0252 25.6746 12.751C25.2118 13.441 24.5972 13.78 23.8314 13.78V15.78C25.3196 15.78 26.5335 15.061 27.3356 13.865C28.1139 12.7048 28.4884 11.132 28.4884 9.352H26.4884ZM33.9314 18H32.9314V19H33.9314V18ZM33.9314 0.864999V-0.135001H32.9314V0.864999H33.9314ZM38.0484 14.688H37.0484V15.688H38.0484V14.688ZM38.0484 4.154V3.154H37.0484V4.154H38.0484ZM33.9314 19H39.0834V17H33.9314V19ZM39.0834 19C41.7501 19 44.1393 18.2798 45.8657 16.6336C47.6009 14.9789 48.5244 12.5245 48.5244 9.352H46.5244C46.5244 12.1365 45.7229 14.0061 44.4855 15.1862C43.2391 16.3747 41.4078 17 39.0834 17V19ZM48.5244 9.352C48.5244 6.17881 47.5998 3.75285 45.8194 2.13462C44.0563 0.532051 41.61 -0.135001 38.8534 -0.135001V1.865C41.3178 1.865 43.2071 2.46295 44.4742 3.61463C45.7241 4.75065 46.5244 6.56819 46.5244 9.352H48.5244ZM38.8534 -0.135001H33.9314V1.865H38.8534V-0.135001ZM32.9314 0.864999V18H34.9314V0.864999H32.9314ZM39.0484 14.688V4.154H37.0484V14.688H39.0484ZM38.0484 5.154H38.6004V3.154H38.0484V5.154ZM38.6004 5.154C39.8705 5.154 40.7411 5.41738 41.3048 5.952C41.86 6.4784 42.3154 7.4577 42.3154 9.352H44.3154C44.3154 7.1753 43.7934 5.55559 42.681 4.50075C41.5773 3.45411 40.0904 3.154 38.6004 3.154V5.154ZM42.3154 9.352C42.3154 11.2448 41.8604 12.2709 41.2895 12.8359C40.7181 13.4014 39.8459 13.688 38.6004 13.688V15.688C40.115 15.688 41.6003 15.3421 42.6964 14.2574C43.793 13.1721 44.3154 11.5302 44.3154 9.352H42.3154ZM38.6004 13.688H38.0484V15.688H38.6004V13.688ZM49.7673 18H48.7673V19H49.7673V18ZM49.7673 0.864999V-0.135001H48.7673V0.864999H49.7673ZM53.8843 14.688H52.8843V15.688H53.8843V14.688ZM53.8843 4.154V3.154H52.8843V4.154H53.8843ZM49.7673 19H54.9193V17H49.7673V19ZM54.9193 19C57.5859 19 59.9751 18.2798 61.7015 16.6336C63.4368 14.9789 64.3603 12.5245 64.3603 9.352H62.3603C62.3603 12.1365 61.5588 14.0061 60.3213 15.1862C59.075 16.3747 57.2437 17 54.9193 17V19ZM64.3603 9.352C64.3603 6.17881 63.4357 3.75285 61.6553 2.13462C59.8921 0.532051 57.4459 -0.135001 54.6893 -0.135001V1.865C57.1537 1.865 59.043 2.46295 60.3101 3.61463C61.5599 4.75065 62.3603 6.56819 62.3603 9.352H64.3603ZM54.6893 -0.135001H49.7673V1.865H54.6893V-0.135001ZM48.7673 0.864999V18H50.7673V0.864999H48.7673ZM54.8843 14.688V4.154H52.8843V14.688H54.8843ZM53.8843 5.154H54.4363V3.154H53.8843V5.154ZM54.4363 5.154C55.7064 5.154 56.5769 5.41738 57.1407 5.952C57.6958 6.4784 58.1513 7.4577 58.1513 9.352H60.1513C60.1513 7.1753 59.6293 5.55559 58.5169 4.50075C57.4132 3.45411 55.9262 3.154 54.4363 3.154V5.154ZM58.1513 9.352C58.1513 11.2448 57.6962 12.2709 57.1254 12.8359C56.5539 13.4014 55.6818 13.688 54.4363 13.688V15.688C55.9508 15.688 57.4362 15.3421 58.5322 14.2574C59.6289 13.1721 60.1513 11.5302 60.1513 9.352H58.1513ZM54.4363 13.688H53.8843V15.688H54.4363V13.688ZM65.6032 18H64.6032V19H65.6032V18ZM76.7122 18V19H77.7122V18H76.7122ZM76.7122 14.55H77.7122V13.55H76.7122V14.55ZM69.7202 14.55H68.7202V15.55H69.7202V14.55ZM69.7202 10.916V9.916H68.7202V10.916H69.7202ZM75.4472 10.916V11.916H76.4472V10.916H75.4472ZM75.4472 7.466H76.4472V6.466H75.4472V7.466ZM69.7202 7.466H68.7202V8.466H69.7202V7.466ZM69.7202 4.292V3.292H68.7202V4.292H69.7202ZM76.4592 4.292V5.292H77.4592V4.292H76.4592ZM76.4592 0.864999H77.4592V-0.135001H76.4592V0.864999ZM65.6032 0.864999V-0.135001H64.6032V0.864999H65.6032ZM65.6032 19H76.7122V17H65.6032V19ZM77.7122 18V14.55H75.7122V18H77.7122ZM76.7122 13.55H69.7202V15.55H76.7122V13.55ZM70.7202 14.55V10.916H68.7202V14.55H70.7202ZM69.7202 11.916H75.4472V9.916H69.7202V11.916ZM76.4472 10.916V7.466H74.4472V10.916H76.4472ZM75.4472 6.466H69.7202V8.466H75.4472V6.466ZM70.7202 7.466V4.292H68.7202V7.466H70.7202ZM69.7202 5.292H76.4592V3.292H69.7202V5.292ZM77.4592 4.292V0.864999H75.4592V4.292H77.4592ZM76.4592 -0.135001H65.6032V1.865H76.4592V-0.135001ZM64.6032 0.864999V18H66.6032V0.864999H64.6032ZM87.6345 8.271L88.0076 7.34321L88.0041 7.34184L87.6345 8.271ZM85.4955 7.42L85.8651 6.49083L85.862 6.48959L85.4955 7.42ZM88.4625 5.396L87.8599 6.19404L88.6384 6.78194L89.2454 6.01813L88.4625 5.396ZM90.5095 2.82L91.2924 3.44213L91.8474 2.7437L91.2166 2.11289L90.5095 2.82ZM82.2065 10.433L82.5945 9.51136L82.5852 9.50744L82.5758 9.5037L82.2065 10.433ZM84.3915 11.353L84.7802 10.4316L84.7795 10.4314L84.3915 11.353ZM80.4355 13.032L81.0898 12.2758L80.3176 11.6076L79.6657 12.3937L80.4355 13.032ZM78.0895 15.861L77.3197 15.2227L76.7141 15.953L77.4116 16.5962L78.0895 15.861ZM84.4835 19.322C89.0534 19.322 92.0155 16.4821 92.0155 12.963H90.0155C90.0155 15.1479 88.1935 17.322 84.4835 17.322V19.322ZM92.0155 12.963C92.0155 11.57 91.6463 10.3889 90.9149 9.42572C90.1927 8.4748 89.1761 7.81316 88.0076 7.34322L87.2613 9.19878C88.2088 9.57984 88.8827 10.0567 89.3221 10.6353C89.7521 11.2016 90.0155 11.941 90.0155 12.963H92.0155ZM88.0041 7.34184L85.8651 6.49084L85.1258 8.34916L87.2648 9.20016L88.0041 7.34184ZM85.862 6.48959C85.0514 6.17029 84.5254 5.97008 84.173 5.74702C83.8734 5.55739 83.9195 5.49426 83.9195 5.488H81.9195C81.9195 6.44774 82.4945 7.05161 83.1034 7.43698C83.6595 7.78892 84.4215 8.07171 85.1289 8.35041L85.862 6.48959ZM83.9195 5.488C83.9195 5.40799 83.9354 5.37013 83.9437 5.35437C83.9518 5.33878 83.9702 5.31078 84.0227 5.27476C84.143 5.1923 84.4232 5.085 84.9435 5.085V3.085C84.1987 3.085 83.467 3.2307 82.8914 3.62549C82.2689 4.05252 81.9195 4.71326 81.9195 5.488H83.9195ZM84.9435 5.085C86 5.085 86.8515 5.43264 87.8599 6.19404L89.0651 4.59796C87.8194 3.65736 86.5549 3.085 84.9435 3.085V5.085ZM89.2454 6.01813L91.2924 3.44213L89.7266 2.19786L87.6795 4.77386L89.2454 6.01813ZM91.2166 2.11289C89.5162 0.412484 87.1603 -0.434 84.9435 -0.434V1.566C86.6826 1.566 88.5128 2.23751 89.8024 3.52711L91.2166 2.11289ZM84.9435 -0.434C80.9148 -0.434 77.7335 2.16828 77.7335 5.741H79.7335C79.7335 3.56372 81.7041 1.566 84.9435 1.566V-0.434ZM77.7335 5.741C77.7335 8.78115 79.8197 10.5605 81.8371 11.3623L82.5758 9.5037C81.0052 8.8795 79.7335 7.66885 79.7335 5.741H77.7335ZM81.8184 11.3546L84.0034 12.2746L84.7795 10.4314L82.5945 9.51136L81.8184 11.3546ZM84.0028 12.2744C84.8023 12.6117 85.2772 12.7989 85.5936 13.0113C85.7307 13.1033 85.7745 13.1613 85.7872 13.1817C85.7919 13.1892 85.8065 13.2088 85.8065 13.285H87.8065C87.8065 12.8667 87.7032 12.4752 87.4851 12.1248C87.2749 11.7871 86.991 11.5405 86.7083 11.3507C86.1852 10.9996 85.4526 10.7153 84.7802 10.4316L84.0028 12.2744ZM85.8065 13.285C85.8065 13.4501 85.7625 13.505 85.685 13.5595C85.5544 13.6514 85.2329 13.78 84.5755 13.78V15.78C85.436 15.78 86.2301 15.6211 86.8354 15.1955C87.4939 14.7325 87.8065 14.0399 87.8065 13.285H85.8065ZM84.5755 13.78C83.5241 13.78 82.1605 13.2024 81.0898 12.2758L79.7811 13.7882C81.1024 14.9316 82.9128 15.78 84.5755 15.78V13.78ZM79.6657 12.3937L77.3197 15.2227L78.8592 16.4993L81.2052 13.6703L79.6657 12.3937ZM77.4116 16.5962C79.382 18.413 82.022 19.322 84.4835 19.322V17.322C82.4829 17.322 80.3389 16.575 78.7673 15.1258L77.4116 16.5962ZM100.753 8.271L101.126 7.34321L101.122 7.34184L100.753 8.271ZM98.6135 7.42L98.9832 6.49083L98.9801 6.48959L98.6135 7.42ZM101.581 5.396L100.978 6.19404L101.757 6.78194L102.363 6.01813L101.581 5.396ZM103.628 2.82L104.41 3.44213L104.965 2.7437L104.335 2.11289L103.628 2.82ZM95.3245 10.433L95.7126 9.51136L95.7033 9.50744L95.6939 9.5037L95.3245 10.433ZM97.5095 11.353L97.8982 10.4316L97.8976 10.4314L97.5095 11.353ZM93.5535 13.032L94.2079 12.2758L93.4357 11.6076L92.7838 12.3937L93.5535 13.032ZM91.2075 15.861L90.4378 15.2227L89.8321 15.953L90.5297 16.5962L91.2075 15.861ZM97.6015 19.322C102.172 19.322 105.134 16.4821 105.134 12.963H103.134C103.134 15.1479 101.312 17.322 97.6015 17.322V19.322ZM105.134 12.963C105.134 11.57 104.764 10.3889 104.033 9.42572C103.311 8.4748 102.294 7.81316 101.126 7.34322L100.379 9.19878C101.327 9.57984 102.001 10.0567 102.44 10.6353C102.87 11.2016 103.134 11.941 103.134 12.963H105.134ZM101.122 7.34184L98.9832 6.49084L98.2439 8.34916L100.383 9.20016L101.122 7.34184ZM98.9801 6.48959C98.1695 6.17029 97.6435 5.97008 97.2911 5.74702C96.9915 5.55739 97.0375 5.49426 97.0375 5.488H95.0375C95.0375 6.44774 95.6126 7.05161 96.2215 7.43698C96.7776 7.78892 97.5396 8.07171 98.247 8.35041L98.9801 6.48959ZM97.0375 5.488C97.0375 5.40799 97.0535 5.37013 97.0617 5.35437C97.0699 5.33878 97.0883 5.31078 97.1408 5.27476C97.2611 5.1923 97.5413 5.085 98.0615 5.085V3.085C97.3168 3.085 96.585 3.2307 96.0095 3.62549C95.387 4.05252 95.0375 4.71326 95.0375 5.488H97.0375ZM98.0615 5.085C99.1181 5.085 99.9696 5.43264 100.978 6.19404L102.183 4.59796C100.937 3.65736 99.673 3.085 98.0615 3.085V5.085ZM102.363 6.01813L104.41 3.44213L102.845 2.19786L100.798 4.77386L102.363 6.01813ZM104.335 2.11289C102.634 0.412484 100.278 -0.434 98.0615 -0.434V1.566C99.8007 1.566 101.631 2.23751 102.92 3.52711L104.335 2.11289ZM98.0615 -0.434C94.0329 -0.434 90.8515 2.16828 90.8515 5.741H92.8515C92.8515 3.56372 94.8222 1.566 98.0615 1.566V-0.434ZM90.8515 5.741C90.8515 8.78115 92.9378 10.5605 94.9552 11.3623L95.6939 9.5037C94.1233 8.8795 92.8515 7.66885 92.8515 5.741H90.8515ZM94.9365 11.3546L97.1215 12.2746L97.8976 10.4314L95.7126 9.51136L94.9365 11.3546ZM97.1208 12.2744C97.9204 12.6117 98.3953 12.7989 98.7117 13.0113C98.8488 13.1033 98.8926 13.1613 98.9052 13.1817C98.9099 13.1892 98.9245 13.2088 98.9245 13.285H100.925C100.925 12.8667 100.821 12.4752 100.603 12.1248C100.393 11.7871 100.109 11.5405 99.8264 11.3507C99.3033 10.9996 98.5707 10.7153 97.8982 10.4316L97.1208 12.2744ZM98.9245 13.285C98.9245 13.4501 98.8806 13.505 98.8031 13.5595C98.6724 13.6514 98.351 13.78 97.6935 13.78V15.78C98.5541 15.78 99.3482 15.6211 99.9535 15.1955C100.612 14.7325 100.925 14.0399 100.925 13.285H98.9245ZM97.6935 13.78C96.6422 13.78 95.2786 13.2024 94.2079 12.2758L92.8992 13.7882C94.2205 14.9316 96.0309 15.78 97.6935 15.78V13.78ZM92.7838 12.3937L90.4378 15.2227L91.9773 16.4993L94.3233 13.6703L92.7838 12.3937ZM90.5297 16.5962C92.5001 18.413 95.1401 19.322 97.6015 19.322V17.322C95.601 17.322 93.457 16.575 91.8854 15.1258L90.5297 16.5962Z" fill="white"/>
</svg>
