<svg width="21" height="69" viewBox="0 0 21 69" fill="none" xmlns="http://www.w3.org/2000/svg">
<path d="M1 61L8 68" stroke="white"/>
<path d="M8 61L1 68" stroke="white"/>
<path d="M1 25L8 32" stroke="white"/>
<path d="M8 25L1 32" stroke="white"/>
<path d="M1 49L8 56" stroke="white"/>
<path d="M8 49L1 56" stroke="white"/>
<path d="M1 37L8 44" stroke="white"/>
<path d="M8 37L1 44" stroke="white"/>
<path d="M1 1L8 8" stroke="white"/>
<path d="M8 1L1 8" stroke="white"/>
<path d="M1 13L8 20" stroke="white"/>
<path d="M8 13L1 20" stroke="white"/>
<path d="M13 25L20 32" stroke="white"/>
<path d="M20 25L13 32" stroke="white"/>
<path d="M13 61L20 68" stroke="white"/>
<path d="M20 61L13 68" stroke="white"/>
<path d="M13 13L20 20" stroke="white"/>
<path d="M20 13L13 20" stroke="white"/>
<path d="M13 49L20 56" stroke="white"/>
<path d="M20 49L13 56" stroke="white"/>
<path d="M13 1L20 8" stroke="white"/>
<path d="M20 1L13 8" stroke="white"/>
<path d="M13 37L20 44" stroke="white"/>
<path d="M20 37L13 44" stroke="white"/>
</svg>
