<svg width="58" height="21" viewBox="0 0 58 21" fill="none" xmlns="http://www.w3.org/2000/svg">
<path d="M50 8L57 1" stroke="white"/>
<path d="M50 1L57 8" stroke="white"/>
<path d="M38 8L45 1" stroke="white"/>
<path d="M38 1L45 8" stroke="white"/>
<path d="M25 8L32 1" stroke="white"/>
<path d="M25 1L32 8" stroke="white"/>
<path d="M50 20L57 13" stroke="white"/>
<path d="M50 13L57 20" stroke="white"/>
<path d="M38 20L45 13" stroke="white"/>
<path d="M38 13L45 20" stroke="white"/>
<path d="M25 20L32 13" stroke="white"/>
<path d="M25 13L32 20" stroke="white"/>
<path d="M13 8L20 1" stroke="white"/>
<path d="M13 1L20 8" stroke="white"/>
<path d="M1 8L8 1" stroke="white"/>
<path d="M1 1L8 8" stroke="white"/>
<path d="M13 20L20 13" stroke="white"/>
<path d="M13 13L20 20" stroke="white"/>
<path d="M1 20L8 13" stroke="white"/>
<path d="M1 13L8 20" stroke="white"/>
</svg>
