<svg width="120" height="21" viewBox="0 0 120 21" fill="none" xmlns="http://www.w3.org/2000/svg">
<path d="M50 8L57 1" stroke="white"/>
<path d="M50 1L57 8" stroke="white"/>
<path d="M38 8L45 1" stroke="white"/>
<path d="M38 1L45 8" stroke="white"/>
<path d="M25 8L32 1" stroke="white"/>
<path d="M25 1L32 8" stroke="white"/>
<path d="M50 20L57 13" stroke="white"/>
<path d="M50 13L57 20" stroke="white"/>
<path d="M38 20L45 13" stroke="white"/>
<path d="M38 13L45 20" stroke="white"/>
<path d="M25 20L32 13" stroke="white"/>
<path d="M25 13L32 20" stroke="white"/>
<path d="M13 8L20 1" stroke="white"/>
<path d="M13 1L20 8" stroke="white"/>
<path d="M1 8L8 1" stroke="white"/>
<path d="M1 1L8 8" stroke="white"/>
<path d="M13 20L20 13" stroke="white"/>
<path d="M13 13L20 20" stroke="white"/>
<path d="M1 20L8 13" stroke="white"/>
<path d="M1 13L8 20" stroke="white"/>
<path d="M112 8L119 1" stroke="white"/>
<path d="M112 1L119 8" stroke="white"/>
<path d="M100 8L107 1" stroke="white"/>
<path d="M100 1L107 8" stroke="white"/>
<path d="M87 8L94 1" stroke="white"/>
<path d="M87 1L94 8" stroke="white"/>
<path d="M112 20L119 13" stroke="white"/>
<path d="M112 13L119 20" stroke="white"/>
<path d="M100 20L107 13" stroke="white"/>
<path d="M100 13L107 20" stroke="white"/>
<path d="M87 20L94 13" stroke="white"/>
<path d="M87 13L94 20" stroke="white"/>
<path d="M75 8L82 1" stroke="white"/>
<path d="M75 1L82 8" stroke="white"/>
<path d="M63 8L70 1" stroke="white"/>
<path d="M63 1L70 8" stroke="white"/>
<path d="M75 20L82 13" stroke="white"/>
<path d="M75 13L82 20" stroke="white"/>
<path d="M63 20L70 13" stroke="white"/>
<path d="M63 13L70 20" stroke="white"/>
</svg>
