<svg width="26" height="19" viewBox="0 0 26 19" fill="none" xmlns="http://www.w3.org/2000/svg">
<path opacity="0.5" d="M7.015 19.322C9.14399 19.322 10.962 18.3947 12.2112 16.6208C13.4325 14.8865 14.064 12.4154 14.064 9.352H12.064C12.064 12.1766 11.4765 14.1905 10.576 15.4692C9.70349 16.7083 8.49701 17.322 7.015 17.322V19.322ZM14.064 9.352C14.064 6.30022 13.4325 3.86834 12.2033 2.17268C10.9447 0.436604 9.12426 -0.434 7.015 -0.434V1.566C8.51674 1.566 9.72082 2.1559 10.584 3.34657C11.4765 4.57766 12.064 6.53878 12.064 9.352H14.064ZM7.015 -0.434C4.90905 -0.434 3.08303 0.428112 1.81731 2.16122C0.580612 3.8546 -0.057 6.28779 -0.057 9.352H1.943C1.943 6.52821 2.53589 4.5684 3.43244 3.34078C4.29997 2.15289 5.50995 1.566 7.015 1.566V-0.434ZM-0.057 9.352C-0.057 12.4171 0.580944 14.8887 1.80873 16.6228C3.0638 18.3955 4.88679 19.322 7.015 19.322V17.322C5.53221 17.322 4.3192 16.7075 3.44102 15.4672C2.53556 14.1883 1.943 12.1749 1.943 9.352H-0.057ZM7.015 14.148C6.86802 14.148 6.78098 14.1174 6.712 14.0712C6.63682 14.0209 6.50471 13.8988 6.36121 13.5891C6.057 12.9325 5.807 11.6663 5.807 9.352H3.807C3.807 11.7297 4.0515 13.3615 4.54654 14.4299C4.80267 14.9827 5.14637 15.4299 5.59947 15.7332C6.05877 16.0406 6.55248 16.148 7.015 16.148V14.148ZM5.807 9.352C5.807 7.04626 6.05801 5.82317 6.35506 5.20556C6.49301 4.91874 6.6177 4.81215 6.68708 4.76864C6.75484 4.72614 6.84892 4.694 7.015 4.694V2.694C6.57158 2.694 6.08491 2.78549 5.62439 3.07433C5.16549 3.36216 4.81436 3.79463 4.55269 4.33868C4.05049 5.38283 3.807 6.98874 3.807 9.352H5.807ZM7.015 4.694C7.18108 4.694 7.27207 4.72612 7.3362 4.76667C7.40225 4.80844 7.52482 4.91319 7.66101 5.20048C7.95445 5.81948 8.2 7.04421 8.2 9.352H10.2C10.2 6.99079 9.96255 5.38652 9.46824 4.34377C9.21055 3.80019 8.86306 3.36587 8.40514 3.0763C7.9453 2.78551 7.45842 2.694 7.015 2.694V4.694ZM8.2 9.352C8.2 11.6683 7.95545 12.9361 7.65499 13.5941C7.51331 13.9043 7.38329 14.0247 7.31126 14.0733C7.24585 14.1174 7.16188 14.148 7.015 14.148V16.148C7.47762 16.148 7.97152 16.0406 8.43009 15.7311C8.88203 15.4261 9.22206 14.9772 9.47426 14.4249C9.96154 13.3579 10.2 11.7277 10.2 9.352H8.2ZM14.0616 18H13.0616V19H14.0616V18ZM25.9296 18V19H26.9296V18H25.9296ZM25.9296 14.55H26.9296V13.55H25.9296V14.55ZM19.9956 14.78L19.2854 14.076L17.2147 16.1649L20.1295 15.771L19.9956 14.78ZM13.8546 3.211L13.1245 2.52768L12.46 3.2377L13.1512 3.92176L13.8546 3.211ZM16.0856 5.419L15.3822 6.12976L16.1086 6.84873L16.8116 6.10674L16.0856 5.419ZM14.0616 15.654L13.3892 14.9139L13.0616 15.2115V15.654H14.0616ZM14.0616 19H25.9296V17H14.0616V19ZM26.9296 18V14.55H24.9296V18H26.9296ZM25.9296 13.55H22.8016V15.55H25.9296V13.55ZM22.8016 13.55C21.9527 13.55 20.7278 13.672 19.8617 13.789L20.1295 15.771C20.9654 15.658 22.0865 15.55 22.8016 15.55V13.55ZM20.7058 15.484C22.0416 14.1366 23.3844 12.6071 24.3986 11.0129C25.4045 9.43175 26.1476 7.69329 26.1476 5.948H24.1476C24.1476 7.14671 23.6257 8.50175 22.7111 9.93935C21.8049 11.3639 20.5717 12.7784 19.2854 14.076L20.7058 15.484ZM26.1476 5.948C26.1476 4.07014 25.4803 2.45199 24.2715 1.30641C23.0682 0.166099 21.4054 -0.434 19.5356 -0.434V1.566C20.9779 1.566 22.121 2.0239 22.8958 2.75809C23.6649 3.48701 24.1476 4.55986 24.1476 5.948H26.1476ZM19.5356 -0.434C18.1928 -0.434 17.0392 -0.197943 15.9759 0.315121C14.9215 0.823927 14.0139 1.57737 13.1245 2.52768L14.5847 3.89432C15.3744 3.05063 16.0883 2.48157 16.8451 2.11638C17.5931 1.75544 18.4405 1.566 19.5356 1.566V-0.434ZM13.1512 3.92176L15.3822 6.12976L16.7891 4.70824L14.5581 2.50024L13.1512 3.92176ZM16.8116 6.10674C17.646 5.226 18.2776 4.763 18.9836 4.763V2.763C17.3436 2.763 16.1813 3.864 15.3597 4.73125L16.8116 6.10674ZM18.9836 4.763C19.4647 4.763 19.7342 4.90592 19.8893 5.07032C20.0515 5.24215 20.2146 5.57149 20.2146 6.178H22.2146C22.2146 5.22051 21.9523 4.34235 21.3439 3.69768C20.7286 3.04558 19.8825 2.763 18.9836 2.763V4.763ZM20.2146 6.178C20.2146 7.06207 19.6856 8.22947 18.4604 9.76657C17.2601 11.2724 15.5228 12.9753 13.3892 14.9139L14.7341 16.3941C16.8785 14.4457 18.7176 12.6526 20.0244 11.0132C21.3062 9.40503 22.2146 7.77793 22.2146 6.178H20.2146ZM13.0616 15.654V18H15.0616V15.654H13.0616Z" fill="white"/>
</svg>
