<svg width="21" height="58" viewBox="0 0 21 58" fill="none" xmlns="http://www.w3.org/2000/svg">
<path d="M13 50L20 57" stroke="white"/>
<path d="M20 50L13 57" stroke="white"/>
<path d="M13 38L20 45" stroke="white"/>
<path d="M20 38L13 45" stroke="white"/>
<path d="M13 25L20 32" stroke="white"/>
<path d="M20 25L13 32" stroke="white"/>
<path d="M1 50L8 57" stroke="white"/>
<path d="M8 50L1 57" stroke="white"/>
<path d="M1 38L8 45" stroke="white"/>
<path d="M8 38L1 45" stroke="white"/>
<path d="M1 25L8 32" stroke="white"/>
<path d="M8 25L1 32" stroke="white"/>
<path d="M13 13L20 20" stroke="white"/>
<path d="M20 13L13 20" stroke="white"/>
<path d="M13 1L20 8" stroke="white"/>
<path d="M20 1L13 8" stroke="white"/>
<path d="M1 13L8 20" stroke="white"/>
<path d="M8 13L1 20" stroke="white"/>
<path d="M1 1L8 8" stroke="white"/>
<path d="M8 1L1 8" stroke="white"/>
</svg>
