<svg width="24" height="24" viewBox="0 0 24 24" fill="none" xmlns="http://www.w3.org/2000/svg">
<path fill-rule="evenodd" clip-rule="evenodd" d="M12.75 1.5C15.3359 1.5 17.8158 2.52723 19.6443 4.35571C21.4728 6.18419 22.5 8.66414 22.5 11.25C22.5 13.8359 21.4728 16.3158 19.6443 18.1443C17.8158 19.9728 15.3359 21 12.75 21C10.1641 21 7.68419 19.9728 5.85571 18.1443C4.02723 16.3158 3 13.8359 3 11.25C3 8.66414 4.02723 6.18419 5.85571 4.35571C7.68419 2.52723 10.1641 1.5 12.75 1.5ZM20.091 7.5C19.129 5.62951 17.4919 4.19462 15.5115 3.486C16.1775 4.746 16.659 6.096 16.941 7.5H20.091ZM20.964 11.9925C20.988 11.7457 21 11.4979 21 11.25C20.9985 10.4888 20.891 9.73152 20.6805 9H17.1675C17.2155 9.4965 17.25 9.996 17.25 10.5C17.2469 11.5078 17.1434 12.5127 16.941 13.5H20.6805C20.823 13.0065 20.9175 12.5025 20.9655 11.9925H20.964ZM15.6615 11.9925L15.6705 11.916C15.7217 11.4457 15.7482 10.9731 15.75 10.5C15.7399 9.99827 15.7019 9.49749 15.636 9H9.864C9.79758 9.49743 9.75952 9.99824 9.75 10.5C9.75367 11.5099 9.8709 12.5163 10.0995 13.5H15.4005C15.516 13.002 15.603 12.4995 15.6615 11.9925ZM15.3735 7.5C15.0201 5.91353 14.3823 4.40417 13.491 3.045C13.245 3.024 12.999 3 12.75 3C12.5937 3.00076 12.4376 3.00827 12.282 3.0225L12.009 3.045L12 3.06C11.1134 4.41519 10.4787 5.91931 10.1265 7.5H15.3735ZM8.559 7.5C8.84672 6.09697 9.33472 4.74261 10.008 3.4785C8.01898 4.1847 6.37419 5.62295 5.409 7.5H8.559ZM4.8195 9C4.60934 9.73159 4.50181 10.4888 4.5 11.25C4.50181 12.0112 4.60934 12.7684 4.8195 13.5H8.559C8.35564 12.5129 8.25212 11.5078 8.25 10.5C8.25 9.996 8.2845 9.4965 8.3325 9H4.8195ZM8.9505 15H5.4105C5.97752 16.1076 6.78708 17.073 7.77891 17.8243C8.77073 18.5756 9.91927 19.0936 11.139 19.3395C10.179 18.0213 9.43982 16.5556 8.9505 15ZM12.75 18.966C13.7092 17.7797 14.4589 16.4385 14.967 15H10.533C11.0411 16.4384 11.7909 17.7797 12.75 18.966ZM16.5495 15C16.0602 16.5556 15.321 18.0212 14.361 19.3395C15.5807 19.0934 16.7291 18.5754 17.7209 17.824C18.7127 17.0727 19.5223 16.1074 20.0895 15H16.5495Z" fill="white"/>
</svg>
